<?xml version="1.0" standalone="no"?>
<!DOCTYPE svg PUBLIC "-//W3C//DTD SVG 20010904//EN"
 "http://www.w3.org/TR/2001/REC-SVG-20010904/DTD/svg10.dtd">
<svg version="1.0" xmlns="http://www.w3.org/2000/svg"
 width="468.000000pt" height="468.000000pt" viewBox="0 0 468.000000 468.000000"
 preserveAspectRatio="xMidYMid meet">
<metadata>
Created by potrace 1.14, written by Peter Selinger 2001-2017
</metadata>
<g transform="translate(0.000000,468.000000) scale(0.100000,-0.100000)"
fill="#000000" stroke="none">
<path d="M728 4195 c-63 -67 -63 -64 4 -136 24 -25 78 -84 120 -131 l77 -84
386 0 386 1 55 60 c30 33 83 91 117 129 34 39 67 74 73 80 7 6 -10 30 -53 75
l-62 66 -523 0 -523 1 -57 -61z"/>
<path d="M2577 4199 c-32 -33 -57 -64 -55 -69 2 -4 37 -46 79 -92 42 -45 98
-108 125 -138 l50 -56 383 1 382 0 62 66 c34 36 93 98 130 138 l68 72 -53 62
c-29 34 -57 65 -63 69 -5 4 -244 7 -530 7 l-520 -1 -58 -59z"/>
<path d="M2014 4037 c-7 -13 -149 -169 -216 -238 -9 -10 -21 -26 -26 -36 -5
-10 -9 -171 -8 -370 l1 -352 100 -107 c55 -59 113 -122 128 -140 l29 -33 25
27 c14 15 41 45 59 68 l34 41 0 514 0 514 -59 64 c-47 51 -60 60 -67 48z"/>
<path d="M2386 3994 c-31 -30 -56 -58 -57 -62 0 -4 -2 -239 -2 -522 l-2 -515
39 -45 c21 -25 49 -55 61 -67 l22 -23 58 63 c31 34 92 98 134 142 l76 80 0
357 -1 356 -44 49 c-25 27 -73 81 -106 119 -87 97 -112 124 -118 124 -3 0 -30
-25 -60 -56z"/>
<path d="M3755 3926 c-64 -69 -124 -134 -134 -144 -15 -19 -17 -53 -16 -381
l0 -361 99 -105 c55 -58 114 -122 132 -141 l32 -36 64 64 63 63 0 516 0 516
-62 67 -61 66 -117 -124z"/>
<path d="M802 2833 c-31 -36 -74 -83 -94 -106 -21 -23 -38 -44 -38 -47 0 -3
42 -50 94 -105 l94 -100 454 -1 453 -1 43 46 c24 25 65 69 92 98 28 29 50 56
50 61 0 9 -5 15 -122 144 l-67 75 -451 0 -451 0 -57 -64z"/>
<path d="M2428 2589 c-9 -13 -35 -44 -57 -69 l-41 -45 0 -516 0 -516 58 -63
59 -63 64 68 c35 37 84 89 109 115 25 25 56 58 69 73 l24 27 1 360 c1 308 -1
362 -14 373 -14 13 -132 141 -217 236 l-39 43 -16 -23z"/>
<path d="M537 2537 l-57 -61 0 -521 c0 -483 1 -522 18 -536 9 -8 36 -36 58
-62 l42 -47 70 77 c39 43 80 89 92 103 12 14 39 44 61 68 21 24 39 46 40 50 0
4 1 164 2 356 2 297 0 351 -13 366 -8 9 -60 66 -115 125 -55 59 -102 110 -105
114 -26 32 -36 29 -93 -32z"/>
<path d="M3799 2528 c-35 -39 -68 -76 -74 -82 -5 -6 -34 -37 -62 -69 l-53 -59
0 -355 0 -355 57 -64 c31 -36 90 -101 132 -144 l76 -80 59 59 58 59 0 522 0
522 -58 59 c-33 32 -62 59 -65 59 -3 0 -34 -32 -70 -72z"/>
<path d="M865 1453 c-39 -42 -92 -99 -118 -127 -89 -93 -88 -87 -21 -156 l58
-60 525 0 c289 0 531 4 536 8 6 4 32 30 59 59 54 58 54 55 -15 131 -19 20 -70
79 -113 130 l-80 92 -381 0 -381 0 -69 -77z"/>
<path d="M2875 1522 l-100 -3 -35 -38 c-19 -21 -71 -77 -115 -126 -44 -48 -86
-94 -93 -101 -15 -16 -11 -24 38 -79 81 -90 9 -80 591 -80 l516 0 49 54 c77
84 77 76 -1 163 -22 24 -62 71 -90 103 -86 100 -92 105 -138 106 -196 3 -541
3 -622 1z"/>
<path d="M1361 585 l1 -285 29 0 c27 0 29 2 30 43 1 23 0 56 -1 72 -1 21 7 38
23 53 l24 22 68 -91 c73 -97 79 -102 119 -97 24 3 22 7 -60 116 l-85 113 73
75 c40 41 75 79 76 85 2 5 -11 9 -29 9 -25 0 -41 -8 -64 -34 -16 -18 -56 -61
-87 -94 l-56 -61 0 127 c-1 252 2 232 -31 232 l-30 0 0 -285z"/>
<path d="M2949 866 c-2 -3 -3 -53 -2 -113 1 -90 0 -105 -11 -91 -35 47 -152
59 -203 22 -63 -47 -90 -148 -69 -260 15 -81 101 -144 176 -130 14 2 30 5 37
5 6 1 25 13 42 27 17 14 32 21 32 15 1 -6 2 -17 3 -23 0 -7 13 -14 29 -16 l27
-3 0 285 0 286 -28 0 c-16 0 -31 -2 -33 -4z m-48 -229 c30 -18 44 -67 43 -144
-1 -103 -25 -139 -99 -147 -78 -8 -116 34 -123 136 -6 85 16 144 63 164 32 15
85 11 116 -9z"/>
<path d="M622 690 c-43 -20 -62 -48 -62 -95 0 -36 47 -79 120 -109 82 -34 109
-58 102 -92 -9 -46 -87 -64 -171 -38 -25 7 -47 14 -49 14 -2 0 -2 -12 0 -27 4
-37 52 -53 137 -47 74 5 115 26 132 66 26 63 6 113 -58 143 -21 9 -51 23 -67
31 -16 8 -34 14 -41 14 -18 0 -45 34 -45 57 0 11 7 26 16 33 21 18 89 20 142
4 23 -6 42 -9 42 -6 0 4 3 17 6 28 5 20 0 23 -46 33 -72 15 -109 13 -158 -9z"/>
<path d="M1035 698 c-76 -27 -115 -99 -112 -205 3 -84 25 -132 79 -170 37 -25
50 -28 117 -27 82 0 115 12 124 44 7 27 -5 33 -40 19 -15 -6 -51 -11 -80 -11
-77 -1 -123 35 -137 110 l-5 32 141 0 141 0 -6 54 c-7 66 -27 108 -67 136 -35
25 -112 34 -155 18z m133 -74 c12 -14 22 -38 22 -55 l0 -29 -104 0 -105 0 8
28 c13 44 33 71 61 81 40 15 92 4 118 -25z"/>
<path d="M2333 691 c-24 -11 -43 -25 -43 -31 0 -5 -4 -10 -10 -10 -5 0 -10 11
-10 25 0 20 -5 25 -25 25 -19 0 -25 -5 -26 -22 -1 -29 -1 -349 0 -365 1 -7 14
-13 30 -13 l30 0 -1 128 c0 179 20 220 111 227 46 3 76 -11 90 -42 6 -14 11
-84 11 -168 l0 -145 30 0 c22 0 30 5 31 18 5 126 -1 294 -13 318 -32 67 -126
92 -205 55z"/>
<path d="M3234 699 c-128 -37 -162 -271 -54 -363 40 -33 101 -49 161 -42 74 9
97 21 97 50 0 30 3 29 -63 12 -89 -23 -156 -1 -181 61 -30 72 -30 72 124 75
l137 3 -2 44 c-6 124 -102 194 -219 160z m122 -71 c13 -12 26 -38 29 -55 l5
-33 -105 0 c-58 0 -105 4 -105 9 0 4 5 23 11 40 23 66 116 88 165 39z"/>
<path d="M3673 689 c-24 -12 -43 -25 -43 -30 0 -5 -4 -9 -10 -9 -5 0 -9 3 -9
8 5 30 -3 42 -28 42 l-28 0 0 -200 0 -200 33 0 32 0 -1 134 c0 142 10 184 50
205 54 29 136 16 151 -25 6 -14 10 -90 10 -170 l0 -144 30 0 c34 0 32 -13 31
200 -1 140 -9 160 -72 192 -45 24 -95 23 -146 -3z"/>
<path d="M1750 543 c0 -139 2 -162 20 -190 22 -37 41 -49 94 -57 54 -9 101 2
131 30 32 30 35 30 35 -1 0 -21 5 -25 28 -25 l28 0 0 200 0 200 -31 0 -31 0 1
-117 c1 -138 -10 -188 -48 -217 -38 -28 -111 -27 -140 3 -20 20 -22 33 -25
176 l-3 155 -30 0 -29 0 0 -157z"/>
</g>
</svg>
